<?xml version="1.0" encoding="UTF-8" standalone="no"?>
<!-- Created with Inkscape (http://www.inkscape.org/) -->

<svg
   version="1.1"
   id="svg16"
   width="1024"
   height="1024"
   viewBox="0 0 800 1000"
   sodipodi:docname="logo-sq_web.svg"
   inkscape:version="1.1.1 (3bf5ae0d25, 2021-09-20)"
   xmlns:inkscape="http://www.inkscape.org/namespaces/inkscape"
   xmlns:sodipodi="http://sodipodi.sourceforge.net/DTD/sodipodi-0.dtd"
   xmlns="http://www.w3.org/2000/svg"
   xmlns:svg="http://www.w3.org/2000/svg">
  <defs
     id="defs20">
    <rect
       x="278.18887"
       y="680.90039"
       width="471.59638"
       height="91.404916"
       id="rect46045" />
  </defs>
  <sodipodi:namedview
     id="namedview18"
     pagecolor="#ffffff"
     bordercolor="#999999"
     borderopacity="1"
     inkscape:pageshadow="0"
     inkscape:pageopacity="0"
     inkscape:pagecheckerboard="0"
     showgrid="false"
     inkscape:snap-global="true"
     inkscape:zoom="0.75488281"
     inkscape:cx="166.91332"
     inkscape:cy="506.70116"
     inkscape:window-width="1920"
     inkscape:window-height="991"
     inkscape:window-x="-9"
     inkscape:window-y="-9"
     inkscape:window-maximized="1"
     inkscape:current-layer="g22" />
  <g
     inkscape:groupmode="layer"
     inkscape:label="Image"
     id="g22"
     style="display:inline">
    <path
       style="display:inline;fill:#EF883A"
       d="m 321.49159,622.58826 c -15.29302,-3.99406 -31.6825,-13.56343 -42.42101,-24.76848 -15.67534,-16.35635 -23.56433,-32.89303 -25.52373,-53.50212 -0.58797,-6.18432 -0.81287,-56.31892 -0.57277,-127.68247 0.38595,-114.71598 0.44414,-117.68955 2.45567,-125.5 6.41276,-24.89976 25.47182,-47.11023 48.90724,-56.99404 17.1356,-7.22688 11.22268,-6.89205 124.1546,-7.03055 107.44165,-0.13178 120.65663,0.2145 126.6851,3.31955 0.9982,0.51413 2.44004,0.71221 3.2041,0.44018 0.80484,-0.28655 1.11346,-0.0485 0.73368,0.56603 -0.36053,0.58335 -0.19816,1.34329 0.36081,1.68875 0.55897,0.34546 1.01631,0.14774 1.01631,-0.43938 0,-0.70039 0.6018,-0.75118 1.75,-0.14767 0.9625,0.5059 3.91703,1.68321 6.56563,2.61624 3.20767,1.12999 4.64377,2.1443 4.30093,3.03774 -0.32016,0.83432 0.002,1.14284 0.85358,0.81624 0.75256,-0.28879 2.45306,0.18571 3.7789,1.05443 1.32584,0.86872 2.71219,1.27792 3.08079,0.90932 0.36859,-0.36859 0.67017,-0.21156 0.67017,0.34898 0,0.56053 2.8125,3.21371 6.25,5.89596 8.58296,6.6972 17.60172,16.20813 21.54389,22.71959 4.68625,7.74049 9.91867,23.08196 11.20313,32.8476 0.76089,5.78493 1.00142,44.91726 0.78279,127.35103 -0.31431,118.51061 -0.3245,119.03143 -2.47956,126.64353 -5.26728,18.60502 -18.93923,38.47331 -34.80025,50.57226 -6.6077,5.04042 -16.41566,9.92498 -27,13.44654 l -10,3.32714 -109,0.21118 c -105.38408,0.20418 -109.2488,0.1462 -116.5,-1.74758 z m 226.4078,-28.29576 c 14.54068,-4.21885 26.43403,-13.01346 34.33885,-25.39208 9.39308,-14.70916 9.59251,-15.65631 10.26772,-48.76523 0.32528,-15.95 0.51656,-71.075 0.42506,-122.5 -0.18684,-105.00854 0.13599,-100.20729 -7.62312,-113.37165 -7.80566,-13.24335 -20.89458,-23.20984 -35.94066,-27.36685 -5.90985,-1.63281 -14.08347,-1.75623 -111.87565,-1.68943 -81.50184,0.0557 -106.86482,0.36225 -111.5,1.34773 -14.24279,3.02817 -29.87201,13.71749 -36.36594,24.87182 -5.29759,9.09943 -7.8796,15.03695 -8.0149,25.70838 -0.0495,3.90389 2.16914,51.86858 -0.54028,123 -4.79099,125.77939 -0.19196,117.98762 6.62304,132.23922 4.94445,10.33989 17.84137,22.93972 28.87688,28.21168 4.63166,2.21267 10.8962,4.43603 13.9212,4.94081 3.15102,0.5258 49.49002,0.82422 108.5,0.69873 93.90547,-0.19969 103.52164,-0.37038 108.9078,-1.93313 z m -136.4078,-36.82754 c -14.55757,-2.06801 -35.08157,-10.66168 -47.70048,-19.97282 -18.61153,-13.73293 -33.9036,-36.49295 -31.8552,-47.41184 1.36165,-7.25823 8.23674,-12.07931 15.98091,-11.20643 6.75712,0.76163 9.72269,3.56237 14.90771,14.07911 6.26314,12.70348 15.45026,21.62308 28.87513,28.03431 14.94655,7.13793 23.57522,8.9571 39.75855,8.38222 15.35021,-0.54528 21.81006,-2.00982 33.53338,-7.6025 9.82779,-4.6884 23.5,-15.28031 23.5,-18.20552 0,-3.74742 -6.95817,-16.33575 -12.76798,-23.0991 -7.71853,-8.98536 -12.87645,-13.0625 -22.57206,-17.84234 -10.3075,-5.0815 -17.74579,-6.56222 -39.92062,-7.94686 -20.242,-1.26395 -30.61595,-3.69173 -42.10848,-9.85449 -38.12366,-20.44345 -49.66409,-64.65117 -26.74775,-102.46211 6.38243,-10.53073 13.22633,-18.13658 23.62864,-26.2593 20.79557,-16.23836 42.51867,-23.2237 68.98825,-22.18405 29.19951,1.14687 55.47314,12.82837 76.97087,34.22195 15.76576,15.68939 24.54576,31.65061 31.07971,56.5 8.38049,31.87197 3.21402,77.09882 -11.53769,101 -2.20647,3.575 -4.01202,7.02797 -4.01233,7.67327 -3.1e-4,0.64531 -1.07091,2.44532 -2.37912,4.00004 -4.45108,5.2898 -8.77841,13.56514 -8.23197,15.74233 0.28933,1.15279 2.28911,3.81755 4.44394,5.92169 3.40941,3.3292 4.75813,3.92992 10.39203,4.62862 7.68243,0.95275 9.90889,2.00959 12.80645,6.07884 7.34778,10.319 -0.43993,22.97334 -14.11975,22.94334 -10.97394,-0.0241 -21.07515,-4.1918 -29.52242,-12.18087 l -5.25704,-4.97189 -5.81634,3.94546 c -12.30126,8.34443 -29.06669,14.9447 -45.03413,17.72919 -9.3354,1.62796 -25.06945,1.77055 -35.28221,0.31975 z m 101.05213,-93.7021 c 5.54912,-15.18551 7.32923,-25.69182 7.39194,-43.62767 0.064,-18.29958 -1.09255,-25.693 -6.16334,-39.40118 -4.56898,-12.35159 -10.23981,-21.71392 -18.59192,-30.69456 -8.31256,-8.93811 -13.64248,-12.928 -25.03952,-18.74417 -13.34571,-6.81062 -22.67984,-9.07766 -37.14929,-9.02272 -22.22789,0.0844 -37.83681,6.45619 -54.88672,22.40554 -7.44186,6.9615 -12.78229,16.29782 -15.19841,26.57037 -5.8294,24.78467 10.443,47.67102 37.58513,52.8617 4.125,0.78887 15.375,1.8835 25,2.43251 14.24788,0.81269 19.0796,1.49273 26,3.65936 21.65939,6.78108 37.5963,18.6856 50.13431,37.44922 6.2563,9.36279 6.04849,9.4368 10.91782,-3.8884 z"
       id="path40364"
       sodipodi:nodetypes="ssssssssssssssscsssssssssscssssssssssssssssssssssssssssssssssssssssssssscssssssssssssssss"
       clip-path="none" />
    <text
       xml:space="preserve"
       id="text46043"
       style="font-style:normal;font-variant:normal;font-weight:normal;font-stretch:normal;font-size:48px;line-height:1.25;font-family:'Microsoft YaHei';-inkscape-font-specification:'Microsoft YaHei';text-align:center;letter-spacing:4.75px;white-space:pre;shape-inside:url(#rect46045);display:inline;fill:#EF883A;fill-opacity:1;stroke:none"
       x="104.70382"
       y="0"
       transform="translate(-71.534282,-27.818887)"><tspan
         x="382.55371"
         y="723.48334"
         id="tspan100530"><tspan
           style="font-weight:bold;-inkscape-font-specification:'Microsoft YaHei Bold'"
           id="tspan100528">SQ - WEB</tspan></tspan></text>
  </g>
</svg>
